<svg xmlns="http://www.w3.org/2000/svg" viewBox="0 0 527.11 333.96"><defs><style>.cls-1{fill:#f05d89;}.cls-1,.cls-10,.cls-11,.cls-12,.cls-13,.cls-15,.cls-16,.cls-3,.cls-4,.cls-6{stroke:#231f20;}.cls-1,.cls-10,.cls-11,.cls-12,.cls-13,.cls-15,.cls-16,.cls-18,.cls-3,.cls-4,.cls-6{stroke-miterlimit:10;}.cls-2{fill:#f3819e;}.cls-3{fill:#f598ad;}.cls-4{fill:#fac8d1;}.cls-5{fill:#f0699e;}.cls-15,.cls-6{fill:none;}.cls-6{stroke-width:0.5px;}.cls-7{fill:#aa436b;}.cls-8{fill:#e582b5;}.cls-12,.cls-9{fill:#231f20;}.cls-10{fill:#ee2a7b;}.cls-11{fill:#fff;}.cls-13{fill:#be1e2d;}.cls-14{fill:#ce5281;}.cls-16{fill:#f594a2;}.cls-17{fill:#27aae1;}.cls-18{fill:#1c75bc;stroke:#2b3990;stroke-width:2px;}</style></defs><g id="Main"><path class="cls-1" d="M250.3,18.35C236.43,20,225.67,27.23,220.24,32c-26.31,23.24-16.57,68.28-15.12,74.52a110.48,110.48,0,0,0,14.4,33.84c5.39,7.86,8,8.88,13.14,17.64a96.78,96.78,0,0,1,11.16,29.52c2.11,10.4,2,18.33,1.8,27.18a126.14,126.14,0,0,1-2.7,26.46,122,122,0,0,1-7.86,22.88l-.1.21S234,266.21,233,268a50.44,50.44,0,0,1-8.82,11.88c-4.5,3.69-9.26,5.26-8.93,6.42s4.66.72,6.41.6c.48,0,9,.76,25.92,2.34,17.84,1.66,20.19,5.67,43.92,9.18,24.19,3.57,33.1,1.08,35.46.36,7.79-2.39,13.48-4.13,18.36-7.38a24.57,24.57,0,0,1,7.56-4c3.65-1.07,6.43-.78,6.66-1.8s-1.87-1.8-4.14-3.6c-2.59-2.06-3.87-4.08-6.3-7.92-16-25.22-21.06-55.62-21.06-55.62-.88-5.23-1.29-9.29-1.44-10.8a172.7,172.7,0,0,1,0-30.06c.84-10.61,1.25-15.92,2.84-21.25,3.11-10.45,6.64-12.4,12.1-23.93,2.24-4.74,7.32-15.67,8.82-28.8a72.61,72.61,0,0,0-4.68-35.1c-12.71-31.08-45-42-52.2-44.46a130.87,130.87,0,0,0-26.1-5.4C261.49,18.13,256.33,17.63,250.3,18.35Z" transform="translate(-22.26 -17.49)"/><path class="cls-2" d="M221,286.31c-.32-1.16,4.43-2.73,8.93-6.42A50.44,50.44,0,0,0,238.71,268c1-1.8,1.95-3.73,1.95-3.73l.1-.21a122.34,122.34,0,0,0,7.85-22.88,124.81,124.81,0,0,0,2.7-26.46c.17-8.85.32-16.78-1.8-27.18A96.51,96.51,0,0,0,238.35,158c-5.15-8.76-7.74-9.78-13.14-17.64a110.48,110.48,0,0,1-14.4-33.84c-1.45-6.24-11.19-51.28,15.12-74.52,5.43-4.8,16.19-12,30.06-13.68,1.22-.15,2.39-.23,3.55-.29a54,54,0,0,0-9,.29A57.22,57.22,0,0,0,220.47,32c-26.31,23.24-16.58,68.28-15.12,74.52a110.48,110.48,0,0,0,14.4,33.84c5.39,7.86,8,8.88,13.14,17.64a97.06,97.06,0,0,1,11.16,29.52c2.11,10.4,2,18.33,1.8,27.18a126.14,126.14,0,0,1-2.7,26.46,122,122,0,0,1-7.86,22.88l-.1.21s-.93,1.93-1.94,3.73a50.44,50.44,0,0,1-8.82,11.88c-4.51,3.69-9.26,5.26-8.94,6.42s4.66.72,6.42.6h.1C221.45,286.8,221,286.61,221,286.31Z" transform="translate(-22.26 -17.49)"/><path class="cls-3" d="M233.9,266.38c.13-3.2-4.61-5.79-6.1-6.65-9.77-5.66-16.32-16.07-25.38-31a150.67,150.67,0,0,1-9.36-18.18c-3-6.88-3.62-9.56-6.66-16.74-3.78-8.95-5.86-13.88-9.54-19.44-7-10.52-15.08-16.43-27.9-25.74-1.75-1.27-9.34-6.79-10.08-5.94-.36.41,1.12,2.15,3.06,4.86,1.22,1.7,3.15,5,7,11.7,19.74,34,32,58.68,32,58.68,2.19,4.39,5.23,10.59,10,18.95,4.14,7.25,7.08,12.33,12,18.67a44.42,44.42,0,0,0,6.16,6.83c2.26,2,2.89,2.21,4.89,3.84,7.31,6,9.66,12.61,11.88,11.87a7.32,7.32,0,0,0,1.35-1.57c1.63-2.14,2.45-3.21,3.6-5C232.87,268.53,233.88,267,233.9,266.38Z" transform="translate(-22.26 -17.49)"/><path class="cls-1" d="M208,285.11a100.76,100.76,0,0,1-24.66-34,115.45,115.45,0,0,1-5.76-17.28,129.68,129.68,0,0,1-3.6-26.28c-.62-15.71,1.77-19.56,1.08-41-.12-3.68-.18-5.52-.36-7.74-.71-8.64-2.72-29.79-17.46-49a64.33,64.33,0,0,0-20.88-18.54,64.36,64.36,0,0,0-14.58-5.58c-17.1-4.35-31.69-1-31.68-.72a62.05,62.05,0,0,1,14,.9c4.3.8,7.72,1.44,11.52,3.6,6,3.43,9.12,8.49,12,13.21,1.08,1.77,2.86,5.8,6.36,13.79,4.33,9.87,4.23,10,6.66,15.3,3.64,7.87,4.15,8.1,5.4,11.7A62.51,62.51,0,0,1,149,158a115.18,115.18,0,0,1-.58,24.12c-1.34,11.71-2.94,14.21-3.42,25.38-.22,5.21-.07,9.18,0,10.62A115.76,115.76,0,0,0,149.5,245,99.35,99.35,0,0,0,163,274.85a93.13,93.13,0,0,0,14,16.2" transform="translate(-22.26 -17.49)"/><path class="cls-2" d="M168.87,274.85A99.1,99.1,0,0,1,155.37,245a115.21,115.21,0,0,1-4.5-26.82c-.07-1.44-.23-5.41,0-10.62.47-11.17,2.08-13.67,3.42-25.38a115.59,115.59,0,0,0,.57-24.12A62.17,62.17,0,0,0,152,143.45c-1.25-3.6-1.76-3.83-5.4-11.7-2.43-5.25-2.33-5.43-6.66-15.3-3.51-8-5.28-12-6.36-13.79-2.88-4.72-6-9.78-12-13.21-3.8-2.16-7.22-2.8-11.52-3.6A55.31,55.31,0,0,0,96.92,85a55.22,55.22,0,0,1,7.63.9c4.31.8,7.73,1.44,11.52,3.6,6,3.43,9.13,8.49,12,13.21,1.09,1.77,2.86,5.8,6.36,13.79,4.34,9.87,4.24,10,6.66,15.3,3.64,7.87,4.16,8.1,5.4,11.7A61.39,61.39,0,0,1,149.41,158a115.18,115.18,0,0,1-.58,24.12c-1.34,11.71-2.94,14.21-3.42,25.38-.22,5.21-.06,9.18,0,10.62a116.32,116.32,0,0,0,4.5,26.82,99.35,99.35,0,0,0,13.5,29.88,93.55,93.55,0,0,0,14,16.2l4.53-.87A92.73,92.73,0,0,1,168.87,274.85Z" transform="translate(-22.26 -17.49)"/><path class="cls-3" d="M81.87,85.6A57.3,57.3,0,0,0,65.8,91.79c-8.1,4.59-15.43,8.75-20,16.38-9.61,16.1-1.15,38.07.72,38,.83-.05.08-4.48,2.52-12.6,1.33-4.44,4.26-13.78,12.42-21.24,5.67-5.19,11.39-7.2,16-8.82a54.43,54.43,0,0,1,30.06-2.16c4.08.9,9.82,2.18,15.66,6.48,8.78,6.46,12,15.51,12.78,15.12s-1.36-6.32-4.85-13C126,100.14,121.78,92,113,88.13c-4.7-2.08-9.78-2.55-16.93-3.21a49,49,0,0,0-7.73-.15A53.74,53.74,0,0,0,81.87,85.6Z" transform="translate(-22.26 -17.49)"/><path class="cls-4" d="M138,142.19c-8-8.25-20.37-8-23.52-7.92a27.4,27.4,0,0,0-14.4,3.72c-1.6,1-9.55,5.8-11.4,15.48-1.64,8.58,2.61,15.24,4.44,18.12a23,23,0,0,0,9.6,9.12c1.7.81,8.89,4.7,13.44,1.68,1.3-.87,2.69-2.49,2.3-3.58-.5-1.43-3.68-.82-7.45-1.76-.78-.2-7.3-1.92-10.21-6.9-3.35-5.74-1-14.34,4.08-18.84a15.68,15.68,0,0,1,7.92-3.6c11.83-1.81,22.89,9.54,28.2,15,2.93,3,4.08,4.44,4.08,4.44,2.35,2.91,3.68,5.27,4.17,5,.29-.14,0-1.06-.09-3.25a28.66,28.66,0,0,1,.12-3.12,26.79,26.79,0,0,0-.59-7c-.58-2.52-1.67-3.78-4.46-7.62C138.83,143.76,139.64,143.91,138,142.19Z" transform="translate(-22.26 -17.49)"/><path class="cls-3" d="M340.12,253.91c.89-1.62,3.06-1.14,6.12-2.28s4.87-3.38,7.74-6.48c7-7.53,9.68-17.2,10.62-20.34,1.86-6.26,2.32-10.9,3.06-18.54,1.2-12.29.07-14.31,1.26-22.86,1-7.11,2.61-11.79,5.76-20.88,3.79-10.95,6.76-19.48,13.5-28.44,5.2-6.91,11.24-12.44,12.24-11.7.84.61-2.74,4.91-4.68,13.68a40.64,40.64,0,0,0-1.08,13.5c.61,5.58.91,7.17.91,7.17.57,3,1,3.88.71,5.61s-1,2.5-2.7,5.4c0,0-.71,1.21-3.06,5.94-.58,1.16-2.21,4.66-3.24,12.78-1.08,8.57.12,9.59-.54,17.28a81.77,81.77,0,0,1-4,18.36,124.42,124.42,0,0,1-6.66,16.56c-1.21,2.42-1.51,2.81-7.2,12.42-1.15,1.94-9.84,16.74-16.92,21.06a4,4,0,0,1-2.89.72c-1.4-.32-2-1.67-4.37-6.27-2.2-4.26-2.26-4.24-2.84-5.6C340.24,257.13,339.41,255.2,340.12,253.91Z" transform="translate(-22.26 -17.49)"/><path class="cls-5" d="M394.07,149.75a40.64,40.64,0,0,1,1.08-13.5c1.94-8.77,5.52-13.07,4.68-13.68-.51-.37-2.3.85-4.61,3.05a48.6,48.6,0,0,0-3.73,10.63,40.91,40.91,0,0,0-1.08,13.5c.61,5.58.92,7.17.92,7.17.57,3,1,3.88.7,5.61s-1,2.5-2.7,5.4c0,0-.7,1.21-3.06,5.94-.57,1.16-2.21,4.66-3.24,12.78-1.08,8.57.12,9.59-.54,17.28a81.22,81.22,0,0,1-4,18.36,122.91,122.91,0,0,1-6.66,16.56c-1.21,2.42-1.51,2.81-7.2,12.42-1.14,1.94-9.84,16.74-16.92,21.06l-.27.16a2.17,2.17,0,0,0,1,.56,4,4,0,0,0,2.89-.72c7.08-4.32,15.77-19.12,16.92-21.06,5.69-9.61,6-10,7.2-12.42a124.42,124.42,0,0,0,6.66-16.56,81.77,81.77,0,0,0,4-18.36c.66-7.69-.54-8.71.54-17.28,1-8.12,2.66-11.62,3.24-12.78,2.36-4.73,3.06-5.94,3.06-5.94,1.68-2.9,2.41-3.63,2.7-5.4s-.14-2.63-.71-5.61C395,156.92,394.68,155.33,394.07,149.75Z" transform="translate(-22.26 -17.49)"/><path class="cls-4" d="M401.14,121.49c9.63-15.85,26.69-20.07,37.26-22.68a41.9,41.9,0,0,1,16.56-.9c4.35.66,9.2,1.47,12.79,5.42a16.87,16.87,0,0,1,3.95,9.16c1.28,7.9-1.4,17.48-7.38,23-1.93,1.79-3.73,2.73-7.2,6.3-3.08,3.17-4.6,5.47-5,5.22-.8-.46,5-7.7,4.86-17.1,0-1.23-.25-11.58-6.48-14.94-5.07-2.74-11.37.63-19.26,4.86-6.37,3.41-17.45,9.35-25.38,22.14-6.25,10.08-8.22,20.68-9.54,20.34-.48-.13-.39-1.57-.54-4.76-.29-6.37-1.19-9.71-1.26-12A48,48,0,0,1,401.14,121.49Z" transform="translate(-22.26 -17.49)"/><path class="cls-1" d="M372.25,282.75c-.79-1.76,6.85-6,15.75-13.48a117.38,117.38,0,0,0,16-16.38,84.92,84.92,0,0,0,18.9-55.08c0-16-4.52-30.26-13.5-58.86a111.23,111.23,0,0,1-5.76-31A59.72,59.72,0,0,1,404,96.47c2.2-15.62,10.78-25.88,14.22-29.88,4.69-5.46,9.89-9.68,10.44-9.18s-6.64,7.37-10.44,17.1c-3.86,9.89-2.71,19.33-.54,29.88,4.71,22.84,10.08,30.81,18,55.08,9.35,28.64,10.37,43.63,10.62,48.6.51,10,.89,19.08-2.52,30.42-3.85,12.81-10.62,22-18.36,32.58a82.54,82.54,0,0,1-7.92,9c-3.73,3.89-5,4.74-6.48,5.22-3.41,1.1-5-.69-10.8-2-6.41-1.44-12.51-1.05-20.52-.54C374.52,283.1,372.63,283.58,372.25,282.75Z" transform="translate(-22.26 -17.49)"/><path class="cls-2" d="M376.79,282.47c-.79-1.75,6.84-6,15.74-13.48a115.72,115.72,0,0,0,16-16.38,84.92,84.92,0,0,0,18.9-55.08c0-16-4.51-30.26-13.5-58.86a111.45,111.45,0,0,1-5.76-31,60.53,60.53,0,0,1,.36-11.52c2.2-15.62,10.78-25.87,14.22-29.88l.09-.1c3.38-5.27,6.75-8.66,6.28-9.08s-5.75,3.72-10.44,9.18c-3.44,4-12,14.26-14.22,29.88a60.53,60.53,0,0,0-.36,11.52,111.45,111.45,0,0,0,5.76,31c9,28.6,13.48,42.9,13.5,58.86a84.92,84.92,0,0,1-18.9,55.08,116.26,116.26,0,0,1-16,16.38c-8.9,7.52-16.53,11.73-15.74,13.48.28.63,1.45.51,4.3.26A.53.53,0,0,1,376.79,282.47Z" transform="translate(-22.26 -17.49)"/><path class="cls-3" d="M422.38,102.59c7.1-10.7,10.37-22.15,16.38-29.7,1.39-1.75,9-10.93,20.88-11.7a26.26,26.26,0,0,1,18.18,5.94c5.8,5,7.55,11.29,8.46,14.76,4,15.1-3.09,27.55-.72,28.62,1.61.73,6.14-4.51,9-10.08,1.09-2.13,9.71-19.62.41-36.45C486.1,48,467.33,44,455,45.17a43.71,43.71,0,0,0-25.2,11.34A44.31,44.31,0,0,0,416.9,79.05c-1.2,5.5-.91,9.62-.46,16.16.29,4.23.72,9.76,2.64,10.14C420.34,105.6,421.74,103.55,422.38,102.59Z" transform="translate(-22.26 -17.49)"/><path class="cls-6" d="M375,284.64" transform="translate(-22.26 -17.49)"/><path class="cls-7" d="M176.59,194.21c-.54,4.72-1.56,10.39-2,10.35s-.22-2.81-.09-7.2c.24-8.21.73-9.71.9-16.38.12-4.61,0-7.54.27-7.56s.76,3.07,1,5A65.63,65.63,0,0,1,176.59,194.21Z" transform="translate(-22.26 -17.49)"/><path class="cls-8" d="M418.6,106.07a.79.79,0,0,1,.66-.15c.95.18,1.18,2,2.13,5.4.62,2.23.82,2.37,1.54,4.94.24.86.38,1.41.71,2.5.53,1.74.79,2.61.83,2.7.3.64.52,1,.4,1.35a1.46,1.46,0,0,1-1.41.93c-.74-.12-1-1.25-2.25-6.21-1.32-5.47-1.22-5.28-1.5-6.12s-.48-2-.79-3S418.21,106.44,418.6,106.07Z" transform="translate(-22.26 -17.49)"/><path class="cls-9" d="M424.84,123h-.06a.41.41,0,0,0-.19,0,.44.44,0,0,0-.16.1.39.39,0,0,0-.11.17.38.38,0,0,0,0,.19l0,.13a.38.38,0,0,0,.13.22l.1.08a.55.55,0,0,0,.25.07h.06a.32.32,0,0,0,.19,0,.34.34,0,0,0,.16-.1.36.36,0,0,0,.11-.16.41.41,0,0,0,0-.19l0-.13a.45.45,0,0,0-.13-.23l-.1-.07a.45.45,0,0,0-.25-.07Z" transform="translate(-22.26 -17.49)"/><path class="cls-9" d="M424.36,123.11a2.73,2.73,0,0,1-.25.23l.1-.08a2,2,0,0,1-.47.28l.12-.05a2.4,2.4,0,0,1-.38.12.53.53,0,0,0-.3.23.51.51,0,0,0-.05.38.52.52,0,0,0,.62.35,2.62,2.62,0,0,0,1.32-.75.53.53,0,0,0,.15-.36.51.51,0,0,0-.15-.35.5.5,0,0,0-.71,0Z" transform="translate(-22.26 -17.49)"/><path class="cls-9" d="M424.9,123.91a.5.5,0,0,0,0-1,.5.5,0,0,0,0,1Z" transform="translate(-22.26 -17.49)"/><path class="cls-8" d="M423.59,122.51a3.59,3.59,0,0,1,.17.34l-.05-.12a.36.36,0,0,1,0,.09.26.26,0,0,0,.09.17.29.29,0,0,0,.14.13.32.32,0,0,0,.18.06.34.34,0,0,0,.2,0l.12,0a.39.39,0,0,0,.18-.18l0-.12a.39.39,0,0,0,0-.26,3.15,3.15,0,0,0-.26-.56.43.43,0,0,0-.13-.14.46.46,0,0,0-.17-.09.44.44,0,0,0-.2,0,.64.64,0,0,0-.18.06l-.1.08a.42.42,0,0,0-.13.22l0,.14a.45.45,0,0,0,.07.25Z" transform="translate(-22.26 -17.49)"/><path class="cls-8" d="M424,123.37a.5.5,0,0,0,0-1,.5.5,0,0,0,0,1Z" transform="translate(-22.26 -17.49)"/><path class="cls-8" d="M424.12,123.31a.5.5,0,0,0,0-1,.5.5,0,0,0,0,1Z" transform="translate(-22.26 -17.49)"/><path class="cls-8" d="M424.3,123.19a.5.5,0,0,0,0-1,.5.5,0,0,0,0,1Z" transform="translate(-22.26 -17.49)"/><path class="cls-8" d="M424.42,123.13a.5.5,0,0,0,0-1,.5.5,0,0,0,0,1Z" transform="translate(-22.26 -17.49)"/><path class="cls-9" d="M399.75,122.14a7,7,0,0,0-2.71,2,29.76,29.76,0,0,1-2.85,2.41.5.5,0,1,0,.51.86,33.38,33.38,0,0,0,2.83-2.36,6.76,6.76,0,0,1,2.48-1.94.5.5,0,0,0-.26-1Z" transform="translate(-22.26 -17.49)"/><path class="cls-9" d="M394.2,127.75l.18-.13a.53.53,0,0,0,.14-.12.56.56,0,0,0,.09-.17.34.34,0,0,0,0-.2.41.41,0,0,0-.05-.19l-.08-.1a.5.5,0,0,0-.22-.13l-.14,0a.55.55,0,0,0-.25.07l-.18.12a.86.86,0,0,0-.14.13.56.56,0,0,0-.09.17.46.46,0,0,0,0,.2.6.6,0,0,0,.06.19l.08.1a.61.61,0,0,0,.22.13l.14,0a.55.55,0,0,0,.25-.07Z" transform="translate(-22.26 -17.49)"/><path class="cls-9" d="M395.66,126.42c.8-.81,1.65-1.57,2.47-2.34a.5.5,0,0,0-.7-.71c-.83.78-1.68,1.54-2.48,2.34a.5.5,0,0,0,.71.71Z" transform="translate(-22.26 -17.49)"/><path class="cls-9" d="M394.35,127.55a.5.5,0,0,0,0-1,.5.5,0,0,0,0,1Z" transform="translate(-22.26 -17.49)"/><path class="cls-9" d="M348.07,272.84a.5.5,0,0,0,0-1,.5.5,0,0,0,0,1Z" transform="translate(-22.26 -17.49)"/><path class="cls-9" d="M348.33,273.29a.5.5,0,0,0,0-1,.5.5,0,0,0,0,1Z" transform="translate(-22.26 -17.49)"/><path class="cls-9" d="M348,272.84a.5.5,0,0,0,0-1,.5.5,0,0,0,0,1Z" transform="translate(-22.26 -17.49)"/><path class="cls-9" d="M348,272.78a.5.5,0,0,0,0-1,.5.5,0,0,0,0,1Z" transform="translate(-22.26 -17.49)"/><path class="cls-9" d="M348,272.71a.5.5,0,0,0,0-1,.5.5,0,0,0,0,1Z" transform="translate(-22.26 -17.49)"/><path class="cls-9" d="M347.69,272.61c.19.29.39.59.6.87a.44.44,0,0,0,.13.14.56.56,0,0,0,.17.09.5.5,0,0,0,.62-.35.59.59,0,0,0,0-.39c-.22-.28-.41-.57-.61-.86a.5.5,0,0,0-.3-.23.47.47,0,0,0-.38.05.48.48,0,0,0-.23.29.53.53,0,0,0,.05.39Z" transform="translate(-22.26 -17.49)"/><path class="cls-9" d="M348.75,273.79a.5.5,0,0,0,0-1,.5.5,0,0,0,0,1Z" transform="translate(-22.26 -17.49)"/><path class="cls-9" d="M348.76,273.79a.5.5,0,0,0,0-1,.5.5,0,0,0,0,1Z" transform="translate(-22.26 -17.49)"/><path class="cls-9" d="M348.76,273.77a.5.5,0,0,0,0-1,.5.5,0,0,0,0,1Z" transform="translate(-22.26 -17.49)"/></g><g id="Details"><path class="cls-10" d="M48.58,115.55c1-.26,2.05,1,2.16,1.08,1.17,1.39,1.32,4,0,4.8a2.77,2.77,0,0,1-3.24-.72C46.09,119.09,47.16,115.91,48.58,115.55Z" transform="translate(-22.26 -17.49)"/><path class="cls-10" d="M61.3,107.39c1.41.11,2.47,2.47,1.8,3.48s-3.55.79-4.08-.48a2.28,2.28,0,0,1,.47-2A2.35,2.35,0,0,1,61.3,107.39Z" transform="translate(-22.26 -17.49)"/><path class="cls-10" d="M53,105.23c-1.45-.3-2.07-3.2-1.2-4s3.59.17,3.72,1.68A2.43,2.43,0,0,1,53,105.23Z" transform="translate(-22.26 -17.49)"/><path class="cls-10" d="M65.14,95.27c1-.89,2.9-1.63,3.72-.84s.26,2.36-.24,3.24c-.16.28-1.36,2.31-2.88,1.92a2.53,2.53,0,0,1-1.56-2.88A2.6,2.6,0,0,1,65.14,95.27Z" transform="translate(-22.26 -17.49)"/><path class="cls-10" d="M83.5,91.67c1.08.26,2.45,1.12,2.4,2,0,.69-.86,1.12-2.16,1.8-1.73.9-2.89,1.51-3.84,1a2.65,2.65,0,0,1-1-2.88C79.45,91.87,81.86,91.27,83.5,91.67Z" transform="translate(-22.26 -17.49)"/><path class="cls-10" d="M98.74,90.71c1.55-.38,3.76-.1,4.08,1s-1.17,2.18-1.44,2.4c-.48.39-1.89,1.53-3.36,1a2.55,2.55,0,0,1-1.68-2.64C96.62,91.23,98.12,90.86,98.74,90.71Z" transform="translate(-22.26 -17.49)"/><path class="cls-10" d="M113.5,94c1.39-.81,3.59-.51,4,.48.23.6-.29,1.3-.48,1.56a2.92,2.92,0,0,1-3.36,1.08A1.63,1.63,0,0,1,113.5,94Z" transform="translate(-22.26 -17.49)"/><path class="cls-10" d="M91.66,99.71c-.3-.5,1-2.5,2.64-2.52,1.5,0,2.8,1.55,2.58,2.09-.13.3-.67.14-2.7.31S91.81,100,91.66,99.71Z" transform="translate(-22.26 -17.49)"/><path class="cls-10" d="M42,126.11c.59-.22,1.8.85,2,2.16.32,1.72-1.15,3.27-1.8,3.12C41.21,131.15,40.94,126.5,42,126.11Z" transform="translate(-22.26 -17.49)"/><path class="cls-1" d="M92.62,153.35c1.44.1,2.66,2.13,2.16,3s-2.43.91-3.36-.12a1.93,1.93,0,0,1-.36-2.16A1.71,1.71,0,0,1,92.62,153.35Z" transform="translate(-22.26 -17.49)"/><path class="cls-1" d="M93.82,166.31c1.36-.36,3,1,2.88,2.16a2.17,2.17,0,0,1-2.4,1.44A2.12,2.12,0,0,1,92.38,168,1.93,1.93,0,0,1,93.82,166.31Z" transform="translate(-22.26 -17.49)"/><path class="cls-1" d="M105.34,176.87a2.43,2.43,0,0,1,3.52.22A2.41,2.41,0,0,1,108,180a2.06,2.06,0,1,1-2.64-3.12Z" transform="translate(-22.26 -17.49)"/><path class="cls-1" d="M97.66,145.19c1,.09,2.26-2.05,1.68-2.88a1.77,1.77,0,0,0-2.4,0,1.68,1.68,0,0,0-.48,1.2A1.7,1.7,0,0,0,97.66,145.19Z" transform="translate(-22.26 -17.49)"/><path class="cls-1" d="M99.94,148.07c1-.07,2,1.05,1.8,1.92a1.64,1.64,0,0,1-2.16.84,1.58,1.58,0,0,1-.84-1.92A1.42,1.42,0,0,1,99.94,148.07Z" transform="translate(-22.26 -17.49)"/><path class="cls-1" d="M111,137.39a2.26,2.26,0,0,1,3,1.56,2.18,2.18,0,0,1-4.2.72A2,2,0,0,1,111,137.39Z" transform="translate(-22.26 -17.49)"/><path class="cls-1" d="M124.3,140a2.24,2.24,0,0,1,3.24,1,1.85,1.85,0,0,1-.24,1.56,2.17,2.17,0,0,1-3.12.48A2.09,2.09,0,0,1,124.3,140Z" transform="translate(-22.26 -17.49)"/><path class="cls-1" d="M128.5,150.23c.23-.64,1.79-.89,2.88-.36a2,2,0,0,1,1.08,1.08,1.76,1.76,0,0,1-.6,2C130.72,153.52,128.16,151.19,128.5,150.23Z" transform="translate(-22.26 -17.49)"/><path class="cls-1" d="M139.18,153.47c.84-.54,2.36.19,2.88,1.32a2.17,2.17,0,0,1-.48,2.64c-.89.49-2.46-.43-2.88-1.68A2.06,2.06,0,0,1,139.18,153.47Z" transform="translate(-22.26 -17.49)"/><path class="cls-1" d="M111.54,147.31c-.29-.6.92-2.31,2.43-2.36s2.73,1.41,2.52,2c-.15.42-1,.48-2.39.57S111.74,147.72,111.54,147.31Z" transform="translate(-22.26 -17.49)"/><path class="cls-1" d="M402,130.13c.77-.28,2.46,1,2.16,2.16a1.85,1.85,0,0,1-2.34,1.08C400.91,132.82,401.2,130.44,402,130.13Z" transform="translate(-22.26 -17.49)"/><path class="cls-1" d="M401.68,138.41c1.34,0,2.82,1.09,2.7,2.34a2.26,2.26,0,0,1-2,1.8c-1.55.18-3.17-1.45-2.88-2.7A2.27,2.27,0,0,1,401.68,138.41Z" transform="translate(-22.26 -17.49)"/><path class="cls-1" d="M443.44,99.89c1.35-1,3.63-.34,4,.88.31,1-.6,2.22-1.67,2.72s-2.6.51-3.24-.54A2.47,2.47,0,0,1,443.44,99.89Z" transform="translate(-22.26 -17.49)"/><path class="cls-1" d="M431.38,105.65a1.91,1.91,0,0,1,2.34,1.08c.49,1.35-1.38,2.94-2.16,2.7S430.32,106.24,431.38,105.65Z" transform="translate(-22.26 -17.49)"/><path class="cls-1" d="M457.66,103.67c1.59-.46,3.69,1.38,3.42,2.7a2.38,2.38,0,0,1-2.52,1.44,2.53,2.53,0,0,1-2.34-2.52A2.06,2.06,0,0,1,457.66,103.67Z" transform="translate(-22.26 -17.49)"/><path class="cls-1" d="M432.46,114.11a2.4,2.4,0,0,1,2.52,1.08,2.26,2.26,0,0,1-.9,2.88c-1.41.71-3.74-1-3.6-2.34C430.57,114.91,431.57,114.25,432.46,114.11Z" transform="translate(-22.26 -17.49)"/><path class="cls-1" d="M466.84,110.69c1,0,1.6,1.55,1.62,1.62.4,1.06.33,2.77-.72,3.24a2.41,2.41,0,0,1-2.88-1.62C464.38,112.43,465.72,110.64,466.84,110.69Z" transform="translate(-22.26 -17.49)"/><path class="cls-1" d="M464.14,126.17c.71-.15,1.36.62,1.44.72a2.58,2.58,0,0,1-.54,3.6,1.88,1.88,0,0,1-2,.18C462,129.82,462.8,126.44,464.14,126.17Z" transform="translate(-22.26 -17.49)"/><path class="cls-1" d="M449.92,108.89a2.43,2.43,0,0,1,2.52,1.44,2.37,2.37,0,0,1-.9,2.7c-1.36.91-3.7,0-4-1.44A2.6,2.6,0,0,1,449.92,108.89Z" transform="translate(-22.26 -17.49)"/><path class="cls-1" d="M458,117.17c.55-.2,1.86.69,1.8,2s-1.26,2-1.8,1.8C457.17,120.62,457.19,117.47,458,117.17Z" transform="translate(-22.26 -17.49)"/><path class="cls-1" d="M458.74,131a1.7,1.7,0,0,1,.72,2.34c-.52.93-1.8,1.1-2.16.72C456.73,133.49,458,131,458.74,131Z" transform="translate(-22.26 -17.49)"/><path class="cls-1" d="M439.66,107.81c.71,0,1.47.49,1.44.9-.06.74-2.72,1.44-3.06.9C437.8,109.22,438.51,107.83,439.66,107.81Z" transform="translate(-22.26 -17.49)"/><path class="cls-10" d="M436,56c1.22-1.06,3.84-.37,4.5,1.26.73,1.78-1.11,4.21-2.7,4.14-1.33-.06-2.11-1.87-2.16-2C435.24,58.41,435.07,56.79,436,56Z" transform="translate(-22.26 -17.49)"/><path class="cls-10" d="M422,80.63c1.29-.22,3,1.83,2.88,3.78-.07,1-.69,2.36-1.62,2.52-1.29.22-3-1.83-2.88-3.78C420.47,82.11,421.09,80.79,422,80.63Z" transform="translate(-22.26 -17.49)"/><path class="cls-10" d="M452.74,46.44a2.69,2.69,0,0,1,2.88,1.08c.93,1.26.76,3.43-.54,4.14s-3.27-.25-3.78-1.8A2.77,2.77,0,0,1,452.74,46.44Z" transform="translate(-22.26 -17.49)"/><path class="cls-10" d="M462.56,52.19c.88-.92,2.57-1.38,3.6-.54s.74,2.56.36,3.42c-.61,1.39-2.25,2.63-3.42,2.16-1-.39-1.2-1.78-1.26-2.16A3.35,3.35,0,0,1,462.56,52.19Z" transform="translate(-22.26 -17.49)"/><path class="cls-10" d="M482.14,54.35c1.25-.17,3,.41,3.24,1.62s-1.13,2.43-2.16,2.88c-1.51.65-3.67.36-4.14-.72C478.55,56.9,480.16,54.62,482.14,54.35Z" transform="translate(-22.26 -17.49)"/><path class="cls-10" d="M484.48,66.59c1.41-.12,2.86,1.2,2.7,2.16S485.49,70.2,484.3,70c-.71-.12-1.87-.58-2-1.44S483.38,66.68,484.48,66.59Z" transform="translate(-22.26 -17.49)"/><path class="cls-10" d="M492.4,74a2.32,2.32,0,0,1,3.06.54,2.41,2.41,0,0,1-.72,3.06,2.39,2.39,0,0,1-2.88.18A2.56,2.56,0,0,1,492.4,74Z" transform="translate(-22.26 -17.49)"/><path class="cls-10" d="M427.54,66.57a2.18,2.18,0,0,1,2.34.36,2.24,2.24,0,1,1-3.42,2.88A2.34,2.34,0,0,1,427.54,66.57Z" transform="translate(-22.26 -17.49)"/><path class="cls-10" d="M489.52,87.11a2,2,0,0,1,2.34.18c.95,1,.1,3.55-1.26,3.78a2,2,0,0,1-2-1.26A2.16,2.16,0,0,1,489.52,87.11Z" transform="translate(-22.26 -17.49)"/><path class="cls-10" d="M439.58,71.9c-.87-.2-1.79-4.71.44-6.21,1.53-1,4.09-.35,4.32.54.14.56-.72.91-2.39,2.83S440,72,439.58,71.9Z" transform="translate(-22.26 -17.49)"/><path class="cls-10" d="M469.54,61.55c0-.73,1.88-1.69,3.42-1.26,2.1.58,3.09,3.58,2.52,4.14-.28.27-1.45-.3-3.78-1.44C469.72,62,469.54,61.77,469.54,61.55Z" transform="translate(-22.26 -17.49)"/><path class="cls-11" d="M236.74,87.11c2-1.91,4-3.8,6.48-3.6.89.07,3.47.54,6.48,6,4.83,8.78,7.05,23.73,0,37.92-1.91,3.84-5.88,11.83-10.56,11.52-5.51-.37-8.61-12-9.84-16.56-1-3.82-3.57-13.89.48-24.72A29.11,29.11,0,0,1,236.74,87.11Z" transform="translate(-22.26 -17.49)"/><path class="cls-11" d="M278.74,77c4.28-1.43,9.25,3.7,10.08,4.56,2.25,2.32,3.81,5.12,6.57,18.32,3.13,15,2.5,18,1.83,20.08-.25.76-3.48,10.26-9.36,10.56-5.32.27-9.27-7.18-10.56-9.6-.68-1.27-1.84-3.73-3.36-14.4-1.88-13.26-1.19-17.32-.72-19.44C274.09,83.2,275.21,78.2,278.74,77Z" transform="translate(-22.26 -17.49)"/><path class="cls-12" d="M231.46,125.75c.29-7.23,7.25-14.15,12.24-13,3.58.85,5.79,5.79,6.24,9.36a13.85,13.85,0,0,1-.87,6.53c-.39,1.17-3.46,9.9-8.49,10.1C236,139,231.2,132.06,231.46,125.75Z" transform="translate(-22.26 -17.49)"/><path class="cls-12" d="M276.82,116.39c.91-4.22,4.89-7.28,8.88-8.16,3-.67,7.6-.43,10.08,2.4,4.8,5.48,0,18.7-6.73,19.73C283.39,131.22,275.26,123.62,276.82,116.39Z" transform="translate(-22.26 -17.49)"/><path class="cls-11" d="M243.94,117.35" transform="translate(-22.26 -17.49)"/><path class="cls-11" d="M243.94,118.58a2.38,2.38,0,0,1,1.43-2.37c1.18-.35,2.43.84,2.88,1.92s.32,2.73-.5,3.18C246.62,121.93,244.05,120.46,243.94,118.58Z" transform="translate(-22.26 -17.49)"/><path class="cls-11" d="M290.6,112a2.3,2.3,0,0,1,1.43-2.36c1.13-.33,2.23.74,2.67,1.62.56,1.12.42,2.73-.39,3.21C293.22,115.14,290.75,113.81,290.6,112Z" transform="translate(-22.26 -17.49)"/><path class="cls-13" d="M246.7,148.67c-2.41,2.4-1.93,6.74.72,16.56,7.34,27.24,13,48.28,28.44,51.84a15.92,15.92,0,0,0,6.3.36c11.19-1.74,17.49-16.09,25.2-33.66a208,208,0,0,0,7.38-19.8c.82-2.47,2.17-7.65,4.86-18,2.08-8,2.63-10.44,1.44-11.34-1.83-1.4-5.38,2.62-13.86,6.3-5,2.18-9.89,3.2-19.62,5.22a117.18,117.18,0,0,1-13.32,2.34C257.94,150,250.58,144.8,246.7,148.67Z" transform="translate(-22.26 -17.49)"/><path class="cls-14" d="M324.55,139.2l-.09-.62,0-.1-.12-.88A10.39,10.39,0,0,1,323,136a3.21,3.21,0,0,1-.48-1.39,6.7,6.7,0,0,0-.94.42c.7,1.16.06,3.87-1.78,10.95-2.69,10.35-4,15.53-4.86,18a210.73,210.73,0,0,1-7.38,19.8c-7.71,17.57-14,31.92-25.2,33.66l-.62.07a14.13,14.13,0,0,0,3.87-.07c11.2-1.74,17.49-16.09,25.2-33.66a205.27,205.27,0,0,0,7.38-19.8c.82-2.47,2.17-7.65,4.86-18,.74-2.82,1.27-4.92,1.61-6.53A2.44,2.44,0,0,1,324.55,139.2Z" transform="translate(-22.26 -17.49)"/><path class="cls-3" d="M260.72,204.12c-.58-4.18,8.28-11.09,17.48-11.35,10.05-.28,19.33,7.4,18.79,11.37a12.65,12.65,0,0,1-1.06,2.85,15.17,15.17,0,0,1-3.19,4.14c-2.82,2.66-5.83,5.5-10.58,6.3-7,1.18-12.58-3-13.46-3.71a33,33,0,0,1-5.75-6.19C261.53,205.73,260.81,204.81,260.72,204.12Z" transform="translate(-22.26 -17.49)"/><path class="cls-15" d="M240,157.67a18.11,18.11,0,0,1,15.57-13.77" transform="translate(-22.26 -17.49)"/><path class="cls-15" d="M312.58,132.56a7.53,7.53,0,0,1,4.59-.81,8.06,8.06,0,0,1,4.32,2.25,9.21,9.21,0,0,1,3.06,7" transform="translate(-22.26 -17.49)"/><path class="cls-15" d="M228.1,75.11a7.5,7.5,0,0,1,12.72-5.4" transform="translate(-22.26 -17.49)"/><path class="cls-15" d="M271.42,61.91a8.74,8.74,0,0,1,12.84-3.12" transform="translate(-22.26 -17.49)"/><path class="cls-16" d="M224.74,48.47c-.92-2,2.93-5.39,4.44-6.72s6.33-5.58,9.36-4a3.33,3.33,0,0,1,1.68,2.28c.36,2.07-1.84,3.91-5,6.6-2.1,1.76-3.18,2.64-4.8,3C228.43,50.09,225.42,49.93,224.74,48.47Z" transform="translate(-22.26 -17.49)"/><path class="cls-16" d="M251.38,39.83c.75-.08,1.64,1.21,1.8,2.4.19,1.42-.6,3.08-1.44,3.12s-1.35-1.1-1.56-1.92C249.78,41.87,250.51,39.92,251.38,39.83Z" transform="translate(-22.26 -17.49)"/><path class="cls-16" d="M266,30.11a6.18,6.18,0,0,1,7,.84c.28.24,2.52,2.2,2,4.32-.56,2.47-4.49,3.59-7.32,3-.54-.11-3.73-.78-4.32-3.24C262.89,33,264.54,31,266,30.11Z" transform="translate(-22.26 -17.49)"/><path class="cls-16" d="M286.18,40.31c1-.18,2.28.22,2.52,1,.43,1.33-2.35,3.94-3.72,3.36a2.25,2.25,0,0,1-.84-2.52A2.54,2.54,0,0,1,286.18,40.31Z" transform="translate(-22.26 -17.49)"/><path class="cls-16" d="M299.86,37.43c1.22-.39,3.82,5.09,4.08,5.64a13.07,13.07,0,0,1,1.56,7.2c-.11,1-.27,2.59-1,2.76-1.15.27-3.18-3.52-4.2-6.72C299.15,42.54,298.79,37.77,299.86,37.43Z" transform="translate(-22.26 -17.49)"/><path class="cls-16" d="M318.22,49.55a25.73,25.73,0,0,1,5.4,7c4.26,7.83,4.54,7.22,5.28,9.72.8,2.7,1.75,7.79.12,8.64-1.29.66-3.68-1.58-4.8-2.64-3.48-3.28-2.85-5.13-7.2-13-1.11-2-2.38-4.1-2.46-7.08,0-.55-.08-3.39,1.14-3.84C316.43,48.07,317.36,48.77,318.22,49.55Z" transform="translate(-22.26 -17.49)"/><path class="cls-16" d="M334.9,79.55a2.07,2.07,0,0,1,2,1.44,2.19,2.19,0,0,1-1.44,2.4,2.25,2.25,0,0,1-2.76-.84C332.24,81.43,333.45,79.6,334.9,79.55Z" transform="translate(-22.26 -17.49)"/><path class="cls-15" d="M22.66,284.39a41.82,41.82,0,0,0,10.8,10.08c5.14,3.28,9.47,4.37,13.92,5.76,12,3.74,15.39,6.72,23.52,9.84,22.13,8.47,44.61,4.63,49.92,3.6A117.87,117.87,0,0,0,153,302.15c5-2.85,14-8.58,23-10.56,1.62-.36,5.09-1,10.88-2.34,4.08-.95,5.15-1.29,7.83-1.71,3.46-.55,4.21-.39,7.33-1,3.6-.74,3.94-1.24,5.94-1.39a14.9,14.9,0,0,1,7.44,1.45" transform="translate(-22.26 -17.49)"/><path class="cls-15" d="M359.79,285.24c1.81-.52,3.78-1,5.89-1.44,2.33-.47,4.53-.81,6.57-1.05" transform="translate(-22.26 -17.49)"/><path class="cls-15" d="M411.23,285.22a186.83,186.83,0,0,1,35.09,5.47c21.61,5.51,20.06,9.28,39.06,13.68a163.11,163.11,0,0,0,58.32,2.16c2.36-.34,4.29-.67,5.58-.9" transform="translate(-22.26 -17.49)"/></g><g id="Text_2" data-name="Text 2"><path class="cls-17" d="M188.3,326.43a13.26,13.26,0,0,1,.46,2.85c.25,3.41.37,5.12-.49,5.93-1.41,1.31-3.72-.81-5.48.31-2.77,1.77-.85,9.44-1.68,9.6-.62.12-1.28-4.31-3.94-5a3.43,3.43,0,0,0-1.75.09c-3.52,1-4.15,6-5.59,5.86s-.77-5.81-4.08-7.92a5.7,5.7,0,0,0-3.59-.74c-1.94,3.27-2.64,3.31-2.87,3.23-.79-.27-.65-3.47-1-4.86a5.29,5.29,0,0,1-.17-1.1c0-.14,0-.18,0-.5s0-.54,0-.92c0-.65-.05-1.12-.05-1.43a5.74,5.74,0,0,1,.28-1.93,3.83,3.83,0,0,1,1.37-.23,7,7,0,0,1,1.91.28c.66.19,1.35.4,2.05.63s2.35.88,4.93,2a17.78,17.78,0,0,0,6.61,1.62,8.59,8.59,0,0,0,3.08-.54,7.23,7.23,0,0,0,2.54-1.63,3.13,3.13,0,0,0,1.11-2.22,5.63,5.63,0,0,0-.2-1.14,4.69,4.69,0,0,0-1.4-2,4.19,4.19,0,0,0-2.62-1.29,82.75,82.75,0,0,1-12.85-4.16q-3.9-1.82-5.33-7.24a9.7,9.7,0,0,1-.51-3.08,10.24,10.24,0,0,1,.65-3.67,13.69,13.69,0,0,1,2.34-3.76,11,11,0,0,1,4.67-3.17,18.38,18.38,0,0,1,6.59-1.14,22.63,22.63,0,0,1,6.55,1,28.23,28.23,0,0,1,3.76,1.88,6.61,6.61,0,0,1,1.71,1.83,5.88,5.88,0,0,1,1.34,2.22,8.51,8.51,0,0,1,.43,2.79,8.76,8.76,0,0,1-.4,2.8,6.57,6.57,0,0,1-2.25,3.39,7.8,7.8,0,0,1-3.85,1.79,15,15,0,0,1-3.76.46,4.34,4.34,0,0,1-.71-.06,4,4,0,0,0-.6-.06,43.63,43.63,0,0,1-.23-4.73v-.68a2.59,2.59,0,0,1,.57-.09,5.41,5.41,0,0,0,.74-.08l1.11,0a2.7,2.7,0,0,0,1.14-.31,3,3,0,0,0,.94-.77,5.29,5.29,0,0,0,.75-1.29,2.21,2.21,0,0,0-.43-1.79,11.66,11.66,0,0,0-1.8-1.74,7,7,0,0,0-1.94-.74,10.29,10.29,0,0,0-2.22-.23,11.39,11.39,0,0,0-3.7.6,11.26,11.26,0,0,0-3.31,1.8,5,5,0,0,0-2,3.87,7.65,7.65,0,0,0,5.47,5.79q4.44,1.46,7.41,2.31a19.33,19.33,0,0,1,6.67,2.36A7.89,7.89,0,0,1,188.3,326.43Z" transform="translate(-22.26 -17.49)"/><path class="cls-17" d="M228.38,331.37a3.07,3.07,0,0,1-3,1.86,3.28,3.28,0,0,1-2.45-1.75,6,6,0,0,1-.79-1.77,3.69,3.69,0,0,0-1.2-1.88h-.31a3.83,3.83,0,0,0-2.18.94c-2.43,2-3.38,3.71-4.89,4-2,.38-2.5-2.14-5.33-2.56-3.25-.48-4.54,2.57-6.88,1.85-.76-.24-1.08-.69-4.49-7.68a26.75,26.75,0,0,1-2.16-5,20.75,20.75,0,0,1-.78-5.7,24.69,24.69,0,0,1,.74-6.13,42.33,42.33,0,0,1,2.22-6.24c.42,0,1.11.05,2.06.14s1.55.14,1.82.14a5.64,5.64,0,0,0,2.17-.34,38.83,38.83,0,0,1-1.29,3.91,14.35,14.35,0,0,0-1.05,4.64,26.9,26.9,0,0,0,1.37,9.06,9.88,9.88,0,0,0,3.93,5.39,8.7,8.7,0,0,0,4.22,1.57,4.83,4.83,0,0,0,3.3-1.14c.27-.31.54-.63.8-1a.47.47,0,0,0-.28-.4,35.06,35.06,0,0,1-3.51-4.1,10.77,10.77,0,0,1-1.79-4.11l.17-.17a17.08,17.08,0,0,0,2.88.4c1.12.08,2.21.11,3.27.11a23,23,0,0,0,1.57,2.77,10,10,0,0,0,2,2.19.63.63,0,0,0,.52-.34c.15-.23.53-1,1.14-2.39a17.65,17.65,0,0,0,.91-6.61,19.08,19.08,0,0,0-1.06-6.39,13.27,13.27,0,0,0-3.27-5.19,8.26,8.26,0,0,0-2.57-1.28,9.84,9.84,0,0,0-2.79-.42,30.91,30.91,0,0,0-5.24.76,30.4,30.4,0,0,1-5.25.77,16.2,16.2,0,0,1-2.45-.2,26.56,26.56,0,0,1-3.42-.77c-.08-.37-.18-1.31-.31-2.79s-.28-2.64-.43-3.48a1.18,1.18,0,0,1,1.08.09l1.54.71a11,11,0,0,0,3,.4,25.19,25.19,0,0,0,6-1.05,24.56,24.56,0,0,1,5.84-1.06,13.43,13.43,0,0,1,7.67,2.37,17.86,17.86,0,0,1,5.61,6.13,23.57,23.57,0,0,1,2.34,10.71,26.26,26.26,0,0,1-.83,6.61,20.67,20.67,0,0,1-2.42,5.76v.34a12,12,0,0,1,3.93,7.81Z" transform="translate(-22.26 -17.49)"/><path class="cls-17" d="M265.71,324c.52,7.07-.2,9.42-1.26,9.74s-2-1.16-2.88-.72c-1.43.71.35,4.82-1.48,6.34-1.18,1-2.42-.34-4.64.5-2.8,1.06-3,4-4.68,4s-2-3.49-4-3.73c-2.14-.27-3.79,3.49-5,3s.22-3.44-1.37-5.05-4.72.19-6-1.43c-.85-1.06.11-2.32-.17-6.58-.07-1-.18-1.8-.26-2.34a8.37,8.37,0,0,1-.11-1.45V325a50.73,50.73,0,0,1,1.08-8.66,50.48,50.48,0,0,0,1.08-8.49,20.88,20.88,0,0,0-.42-4.36,13.29,13.29,0,0,0-1.63-4,3.38,3.38,0,0,0,.11-.34c.84.08,2.07.12,3.68.12s2.84,0,3.68.11a19.88,19.88,0,0,1,1,3.88,29,29,0,0,1,.31,4.21,76.33,76.33,0,0,1-1.06,10.15,78.64,78.64,0,0,0-1.05,9.52,6,6,0,0,0,1.94,3.59,13.36,13.36,0,0,0,3.93,2.51,9.08,9.08,0,0,0,3,.51,8.48,8.48,0,0,0,5.71-2,10.26,10.26,0,0,0,2.56-3.76,13,13,0,0,0,.74-4.51,47.34,47.34,0,0,0-1-7.63,49.33,49.33,0,0,1-1-7.24,28.68,28.68,0,0,1,.31-4.45,41.5,41.5,0,0,1,1.06-4.67h7.41a16.54,16.54,0,0,0-1.17,3.87,24.19,24.19,0,0,0-.37,4.34,61.13,61.13,0,0,0,1,9.2Q265.59,322.84,265.71,324Z" transform="translate(-22.26 -17.49)"/><path class="cls-17" d="M280.87,343.52c-.15.83-.28,1.56-.4,2.16a7.83,7.83,0,0,1-.45,1.6c-1.48,2.45-2.39,3-3,2.82-1-.21-1.17-2.29-2.16-2.34-.79,0-1.15,1.28-2,1.26s-1.26-1-1.62-1.8l1.2-4.33a10.76,10.76,0,0,0,.34-1.85A18.4,18.4,0,0,0,273,339a46.11,46.11,0,0,0-.52-5.76,47.34,47.34,0,0,1-.51-5.76c-.15-1.29-.28-2.79-.4-4.5s-.17-3.25-.17-4.62a44.12,44.12,0,0,1,.69-9.23,16.31,16.31,0,0,1,.79-2.91h7.76c.11.16.07.48-.12,1a36.62,36.62,0,0,0-1.11,5.59,47.57,47.57,0,0,0-.37,5.87q0,3.87.94,12.74T280.87,343.52Z" transform="translate(-22.26 -17.49)"/><path class="cls-17" d="M322.82,345.42l-.54,2.66-1.31-.41c-.62-.78-1.33-1.48-1.82-1.3s-.51,1.65-.92,1.71c-.22,0-.56-.32-1.11-1.77h-.57c-.49-1.18-.86-2-1.11-2.56a9.71,9.71,0,0,0-1.23-1.89,7,7,0,0,0-1.28,1.69c-1.33,2.47-.51,4.77-1.32,5.11s-1.73-2-3.35-2c-2.31,0-3.33,4.73-5.11,4.56-1.54-.14-1.35-3.79-3.58-4.64-2.4-.92-4.69,2.5-6.5,1.58-1.44-.74-.24-3.07-1.65-7.37-1.22-3.7-3.24-4.89-3.6-8q-.39-3.48-.45-4.17c0-.45-.06-.91-.06-1.36A24.09,24.09,0,0,1,290,315.84a16.66,16.66,0,0,1,7.15-7.38,19.33,19.33,0,0,1,8.81-2.28,16.46,16.46,0,0,1,4.93.72,12.63,12.63,0,0,1,4.19,2.19l1.77,1.77a5.39,5.39,0,0,1,1.42,2.22c.23.08.54.61.94,1.6a11,11,0,0,1,.6,4,10.77,10.77,0,0,1-.54,3.51,7.94,7.94,0,0,1-1.57,2.73,8.73,8.73,0,0,1-2.22,1.86A17.82,17.82,0,0,1,312.9,328a15.84,15.84,0,0,1-3.3.4,12.72,12.72,0,0,1-3.79-.54,10.3,10.3,0,0,1-3.56-2.08,7.63,7.63,0,0,1-2.46-4.27l3.94-3.65a6.2,6.2,0,0,0,1.54,3,5.91,5.91,0,0,0,2.79,1.88,11.55,11.55,0,0,0,1.48.11,3.65,3.65,0,0,0,3-1.08,5.31,5.31,0,0,0,1.6-3.93,7,7,0,0,0-1.91-3.57,6.23,6.23,0,0,0-3.11-1.79,13.61,13.61,0,0,0-2.67-.34,10.18,10.18,0,0,0-4.25.91,14.5,14.5,0,0,0-4,2.74,11.58,11.58,0,0,0-2.94,4.61,18,18,0,0,0-1,6,22.88,22.88,0,0,0,1.14,7,19.79,19.79,0,0,0,2.28,4.3,7.46,7.46,0,0,0,3.36,2.59,6,6,0,0,0,2.73.57,6.74,6.74,0,0,0,3.74-.91,11.67,11.67,0,0,0,1.88-1.42,1.86,1.86,0,0,0,.48-1.32l-.28-.17a12.78,12.78,0,0,0-2-.17,5.81,5.81,0,0,1-2.37-.45,6.3,6.3,0,0,1-.11-1.43,22.6,22.6,0,0,1,.14-2.33c.09-.95.14-1.51.14-1.66a9.52,9.52,0,0,0,1.54.23q.79.06,1.77.06c1.14,0,2.77-.09,4.9-.26s3.32-.26,3.59-.26c.72,0,1.36,0,1.91.06a9.57,9.57,0,0,1,1.74.29c0,.57,0,1.44-.06,2.62s-.06,2.05-.06,2.62a9,9,0,0,1-1.08-.11,7.76,7.76,0,0,0-1.2-.12,2.21,2.21,0,0,0-1.19.29,11.08,11.08,0,0,1,2,3c.81,1.72.76,2.83,1.8,4.22A7,7,0,0,0,322.82,345.42Z" transform="translate(-22.26 -17.49)"/><path class="cls-17" d="M363.06,339.37H361.7a2.36,2.36,0,0,1-2.79,1.37,2.23,2.23,0,0,1-1.2-1.43h-.57c-.5-1.18-.87-2-1.11-2.56a10.2,10.2,0,0,0-1.23-1.89c-.62,2-1.39,3.73-2.15,3.68s-.8-1.25-1.39-1.26c-1.15,0-1.9,4.39-2.7,4.32s-.64-3.4-1.58-3.56-1.27,2.24-2.56,2.39c-1.53.17-2-3-4.14-3.56-2.82-.75-5.39,3.81-7.11,3-1.11-.53-.15-2.47-1.17-6.09-1.09-3.85-3.21-4.66-3.59-8-.27-2.32-.42-3.71-.46-4.17s-.06-.91-.06-1.36a24.21,24.21,0,0,1,2.68-11.38,16.62,16.62,0,0,1,7.16-7.38,19.29,19.29,0,0,1,8.8-2.28,16.42,16.42,0,0,1,4.93.72,12.63,12.63,0,0,1,4.19,2.19l1.77,1.77a5.42,5.42,0,0,1,1.43,2.22c.22.08.54.61.94,1.6a11,11,0,0,1,.59,4,10.51,10.51,0,0,1-.54,3.51,8.08,8.08,0,0,1-1.56,2.73,8.94,8.94,0,0,1-2.23,1.86,17.69,17.69,0,0,1-2.56,1.19,16,16,0,0,1-3.31.4,12.72,12.72,0,0,1-3.79-.54,10.3,10.3,0,0,1-3.56-2.08,7.62,7.62,0,0,1-2.45-4.27l3.93-3.65a6.2,6.2,0,0,0,1.54,3,6,6,0,0,0,2.79,1.88,11.56,11.56,0,0,0,1.49.11,3.68,3.68,0,0,0,3-1.08,5.35,5.35,0,0,0,1.6-3.93,7.14,7.14,0,0,0-1.91-3.57,6.27,6.27,0,0,0-3.11-1.79,13.7,13.7,0,0,0-2.68-.34,10.21,10.21,0,0,0-4.25.91,14.5,14.5,0,0,0-4,2.74,11.45,11.45,0,0,0-2.93,4.61,17.76,17.76,0,0,0-1,6,23.19,23.19,0,0,0,1.14,7,19.79,19.79,0,0,0,2.28,4.3,7.51,7.51,0,0,0,3.36,2.59,6.06,6.06,0,0,0,2.74.57,6.71,6.71,0,0,0,3.73-.91,11.67,11.67,0,0,0,1.88-1.42,1.87,1.87,0,0,0,.49-1.32l-.29-.17a12.64,12.64,0,0,0-2-.17,5.88,5.88,0,0,1-2.37-.45,7,7,0,0,1-.11-1.43c0-.61.05-1.38.14-2.33s.14-1.51.14-1.66a9.69,9.69,0,0,0,1.54.23c.54,0,1.12.06,1.77.06,1.14,0,2.77-.09,4.9-.26s3.33-.26,3.59-.26c.72,0,1.36,0,1.91.06a9.57,9.57,0,0,1,1.74.29c0,.57,0,1.44-.06,2.62s-.05,2.05-.05,2.62a9.08,9.08,0,0,1-1.09-.11,7.77,7.77,0,0,0-1.19-.12,2.22,2.22,0,0,0-1.2.29,11.08,11.08,0,0,1,2,3q1.14,2.73,1.8,4.22a9.26,9.26,0,0,0,1,1.91A1.66,1.66,0,0,1,363.06,339.37Z" transform="translate(-22.26 -17.49)"/><path class="cls-17" d="M399.2,322.73c-.15.72-.29,1.51-.43,2.36a15.13,15.13,0,0,0-.2,2.2,8.17,8.17,0,0,0,.4,2.56c0,.09,0,.21-.05.37-.49,3-.6,3.2-.73,3.23-.38.09-.64-1.14-2-2.52-.72-.74-1.4-1.44-2.25-1.44-1.28,0-1.48,1.63-2.79,2.07-2.33.79-4.54-3.44-6.57-2.88-2.35.66-2,7.11-3.42,7.2s-2-5.64-5.23-6.37a3.48,3.48,0,0,0-1.43,0,4,4,0,0,1,0,.7c-.13,1.58-1.14,3.17-1.71,3.06-.73-.13-.34-2.94-1.34-3.22-.79-.22-1.69,1.37-2.53,1.06a1.25,1.25,0,0,1-.63-.86,15.92,15.92,0,0,0,1.62-4.5,25.8,25.8,0,0,0,.49-5.07,76.44,76.44,0,0,0-.72-8.72,78.13,78.13,0,0,1-.71-8.21v-3.42c0-2.09.07-3.91.2-5.47a21.06,21.06,0,0,1,.88-4.51c1.26,0,2.52,0,3.8-.05l3.84-.12a6.87,6.87,0,0,0,0,.8,15.72,15.72,0,0,0-.74,3.36,29.32,29.32,0,0,0-.23,3.71c0,1.63.21,4.38.65,8.24s.66,6.45.66,7.78a6.85,6.85,0,0,1,.05.91v.85c0,.65,0,1.72-.11,3.22s-.11,2.33-.11,2.48l.57.35a58.63,58.63,0,0,1,8,.85,60.18,60.18,0,0,0,7.38.86A16.82,16.82,0,0,0,399.2,322.73Z" transform="translate(-22.26 -17.49)"/><path class="cls-17" d="M435.62,293.75c0,.8,0,2-.05,3.68s-.06,2.8-.06,3.45a10.4,10.4,0,0,0-3.42-.57,21.15,21.15,0,0,0-3.56.37l-4.7.82-2.43,0-2.42,0h-.8a35.08,35.08,0,0,1-5.47-.4,3.65,3.65,0,0,0-.29,1c0,.31-.05.67-.05,1.08a18.69,18.69,0,0,0,.2,2.4c.13,1,.2,1.69.2,2a3.74,3.74,0,0,0,.68.12c.34,0,.53,0,.57,0,.23,0,.56,0,1,0s.75-.06.94-.06a12.44,12.44,0,0,1,2,.37c1.07.25,2.11.48,3.14.68a15.06,15.06,0,0,0,3,.32,8.21,8.21,0,0,0,3.82-.86.78.78,0,0,1,.23.4,6.88,6.88,0,0,0-.12,1.29v2.45c0,.47,0,.94.06,1.39a7.38,7.38,0,0,1-.06.89,6.2,6.2,0,0,0-.05.77,9.48,9.48,0,0,1-3.71.68,31.91,31.91,0,0,1-4.73-.57,32.4,32.4,0,0,0-4.5-.57,9.49,9.49,0,0,0-1.26.06l-.11.22a23.06,23.06,0,0,1,.57,5.42q0,1.42-.06,2.22c0,.54-.11,1.35-.23,2.45a3.31,3.31,0,0,0,1,.12c.3,0,.82,0,1.54-.12a9.49,9.49,0,0,1,1.71,0l11.51,2a12.59,12.59,0,0,0,2.88-.31,9.09,9.09,0,0,0,2.6-1.12,8.24,8.24,0,0,1,.28,1.57c0,.51.06,1.15.06,1.91s0,1.22,0,1.82,0,1.2,0,1.77c-3-1.94-4.34-2-4.92-1.53s-.3,1.34-1,2.16-2.25,1.08-3.51,1c-2-3.18-3.28-3.77-4.07-3.59-2,.44-2.26,6.07-3.4,6-.85,0-1.13-3.19-2.16-3.24s-1.24,2.35-2.34,2.43c-1.33.1-2-3.34-3.26-3.35-1.83,0-3.19,6.91-3.94,6.77s-.41-5.68-1.25-5.77c-.2,0-.43.25-1,.25a3.5,3.5,0,0,1-.62-.11,8.09,8.09,0,0,1,1-2,9.47,9.47,0,0,0,1.17-2.48,23.75,23.75,0,0,0,.68-3.67,36.52,36.52,0,0,0,.32-4.7,94,94,0,0,0-.91-10.61,92.57,92.57,0,0,1-.92-10.83,26,26,0,0,1,.8-6.32l6.19,1a37.63,37.63,0,0,0,5.5.51,24.2,24.2,0,0,0,2.9-.17,16.48,16.48,0,0,0,2.85-.63c1.37-.27,2.68-.46,3.94-.6a26.2,26.2,0,0,1,3.76-.2A21.29,21.29,0,0,1,435.62,293.75Z" transform="translate(-22.26 -17.49)"/><path class="cls-17" d="M470.51,330.43a8.69,8.69,0,0,1,.45,2.85,9.71,9.71,0,0,1-1,4.13c-2.4,5.37-2.68,10.53-3.67,10.44s-1.52-7-2.25-6.93c-.28,0-.33,1.1-.81,1.17s-1-1.69-1.71-1.8c-1.59-.22-3.3,7.6-4.95,7.47-1.43-.11-1.64-6.16-3.33-6.3-1.19-.1-1.84,2.85-3.24,2.79-1.66-.07-2.25-4.27-3.6-4.23s-1.61,3.84-3,4c-.94.09-1.9-1.62-2.71-3.58a.77.77,0,0,0,0-.35,1.78,1.78,0,0,0-.16-.5,2.43,2.43,0,0,1-.26-.86c0-.3,0-.77-.05-1.42s-.06-1.12-.06-1.43a5.49,5.49,0,0,1,.29-1.93,3.74,3.74,0,0,1,1.36-.23,6.9,6.9,0,0,1,1.91.28c.67.19,1.35.4,2.05.63s2.35.88,4.94,2a17.69,17.69,0,0,0,6.61,1.62,8.67,8.67,0,0,0,3.08-.54A7.28,7.28,0,0,0,463,336a3.13,3.13,0,0,0,1.11-2.22,5,5,0,0,0-.2-1.14,4.65,4.65,0,0,0-1.39-2,4.24,4.24,0,0,0-2.62-1.29,82.58,82.58,0,0,1-12.86-4.16q-3.9-1.82-5.33-7.24a9.7,9.7,0,0,1-.51-3.08,10.46,10.46,0,0,1,.65-3.67,13.69,13.69,0,0,1,2.34-3.76,11,11,0,0,1,4.68-3.17,18.33,18.33,0,0,1,6.58-1.14,22.58,22.58,0,0,1,6.55,1,29.25,29.25,0,0,1,3.77,1.88,6.92,6.92,0,0,1,1.71,1.83,6.15,6.15,0,0,1,1.34,2.22,9.73,9.73,0,0,1,0,5.59,6.57,6.57,0,0,1-2.25,3.39,7.8,7.8,0,0,1-3.85,1.79,14.43,14.43,0,0,1-1.79.34,14.78,14.78,0,0,1-2,.12,4.53,4.53,0,0,1-.71-.06,4,4,0,0,0-.6-.06,43.63,43.63,0,0,1-.23-4.73v-.68a2.59,2.59,0,0,1,.57-.09,5.56,5.56,0,0,0,.75-.08l1.11,0a2.7,2.7,0,0,0,1.14-.31,3.15,3.15,0,0,0,.94-.77,5.63,5.63,0,0,0,.74-1.29,2.21,2.21,0,0,0-.43-1.79,12,12,0,0,0-1.79-1.74,7.14,7.14,0,0,0-1.94-.74,10.46,10.46,0,0,0-2.23-.23,11.43,11.43,0,0,0-3.7.6,11.26,11.26,0,0,0-3.31,1.8,5,5,0,0,0-2,3.87,7.66,7.66,0,0,0,5.47,5.79q4.44,1.46,7.41,2.31a19.26,19.26,0,0,1,6.67,2.36A7.9,7.9,0,0,1,470.51,330.43Z" transform="translate(-22.26 -17.49)"/></g><g id="Text"><path class="cls-18" d="M192.33,325.69a13.39,13.39,0,0,1,.46,2.85c.25,3.42.37,5.12-.49,5.93-1.41,1.32-3.72-.81-5.48.32-2.77,1.77-.85,9.44-1.68,9.6-.62.12-1.28-4.32-3.94-5a3.22,3.22,0,0,0-1.75.09c-3.52,1-4.15,5.95-5.59,5.86s-.77-5.81-4.08-7.92a5.78,5.78,0,0,0-3.59-.75c-1.94,3.27-2.64,3.32-2.87,3.24-.79-.27-.65-3.48-1-4.87a5.15,5.15,0,0,1-.17-1.09c0-.14,0-.18,0-.5s0-.55,0-.93c0-.64-.05-1.12-.05-1.42a5.81,5.81,0,0,1,.28-1.94,4.06,4.06,0,0,1,1.37-.23,7,7,0,0,1,1.91.29c.66.19,1.35.4,2.05.63s2.35.88,4.93,2a17.78,17.78,0,0,0,6.61,1.63,8.39,8.39,0,0,0,3.08-.55,7.34,7.34,0,0,0,2.54-1.62,3.13,3.13,0,0,0,1.11-2.22,5.63,5.63,0,0,0-.2-1.14,4.77,4.77,0,0,0-1.4-2,4.18,4.18,0,0,0-2.62-1.28,83.86,83.86,0,0,1-12.85-4.16q-3.91-1.83-5.33-7.24a9.75,9.75,0,0,1-.51-3.08,10.29,10.29,0,0,1,.65-3.68,13.84,13.84,0,0,1,2.34-3.76,11,11,0,0,1,4.67-3.16,18.38,18.38,0,0,1,6.59-1.14,22.3,22.3,0,0,1,6.55,1,26.47,26.47,0,0,1,3.76,1.88,6.56,6.56,0,0,1,1.71,1.82,6,6,0,0,1,1.34,2.23,8.42,8.42,0,0,1,.43,2.79,8.73,8.73,0,0,1-.4,2.79,6.57,6.57,0,0,1-2.25,3.39,7.9,7.9,0,0,1-3.85,1.8,17.52,17.52,0,0,1-1.79.34,14.88,14.88,0,0,1-2,.11,4.31,4.31,0,0,1-.71-.05,4,4,0,0,0-.6-.06,43.76,43.76,0,0,1-.23-4.73v-.68a2.39,2.39,0,0,1,.57-.09c.27,0,.51,0,.74-.09s.71,0,1.11,0a2.71,2.71,0,0,0,1.14-.32,2.9,2.9,0,0,0,.94-.77,4.91,4.91,0,0,0,.74-1.28,2.2,2.2,0,0,0-.42-1.8,11.21,11.21,0,0,0-1.8-1.73,6.71,6.71,0,0,0-1.94-.74,9.7,9.7,0,0,0-2.22-.23,11.39,11.39,0,0,0-3.7.6,11,11,0,0,0-3.31,1.79,5,5,0,0,0-2,3.88,7.66,7.66,0,0,0,5.48,5.78q4.44,1.46,7.41,2.31a19.55,19.55,0,0,1,6.67,2.37A7.87,7.87,0,0,1,192.33,325.69Z" transform="translate(-22.26 -17.49)"/><path class="cls-18" d="M232.4,330.63a3.05,3.05,0,0,1-3,1.86,3.25,3.25,0,0,1-2.45-1.74,6.26,6.26,0,0,1-.8-1.77,3.58,3.58,0,0,0-1.19-1.88c-.07,0-.18,0-.32,0a3.79,3.79,0,0,0-2.17.94c-2.43,2-3.38,3.71-4.89,4-2,.38-2.51-2.15-5.33-2.56-3.25-.48-4.55,2.56-6.88,1.84-.76-.23-1.08-.69-4.49-7.67a26.75,26.75,0,0,1-2.16-5,20.77,20.77,0,0,1-.78-5.71,24.61,24.61,0,0,1,.74-6.12,40.6,40.6,0,0,1,2.22-6.25c.42,0,1.1.05,2.06.15s1.55.14,1.82.14a5.64,5.64,0,0,0,2.17-.34,39.82,39.82,0,0,1-1.29,3.9,14.4,14.4,0,0,0-1,4.65,26.74,26.74,0,0,0,1.37,9.06,9.92,9.92,0,0,0,3.93,5.39,8.73,8.73,0,0,0,4.22,1.56,4.83,4.83,0,0,0,3.3-1.14c.27-.3.53-.62.8-1a.46.46,0,0,0-.28-.4,35.08,35.08,0,0,1-3.51-4.11,10.66,10.66,0,0,1-1.79-4.1l.17-.17a18,18,0,0,0,2.87.4c1.13.07,2.22.11,3.28.11a23,23,0,0,0,1.57,2.77,10.44,10.44,0,0,0,2,2.19.65.65,0,0,0,.52-.34q.23-.35,1.14-2.4a17.61,17.61,0,0,0,.91-6.61,19,19,0,0,0-1.06-6.38,13.12,13.12,0,0,0-3.27-5.19,8,8,0,0,0-2.57-1.28,9.52,9.52,0,0,0-2.79-.43,31.46,31.46,0,0,0-5.25.77,31.24,31.24,0,0,1-5.24.77,17.61,17.61,0,0,1-2.45-.2,28.37,28.37,0,0,1-3.42-.77c-.08-.38-.18-1.31-.31-2.79s-.28-2.64-.43-3.48a1.18,1.18,0,0,1,1.08.09l1.54.71a11.41,11.41,0,0,0,3,.4,24.66,24.66,0,0,0,6-1.06,25,25,0,0,1,5.85-1.05,13.44,13.44,0,0,1,7.66,2.36,17.79,17.79,0,0,1,5.62,6.13,23.65,23.65,0,0,1,2.34,10.72,26.31,26.31,0,0,1-.83,6.61,20.67,20.67,0,0,1-2.42,5.76v.34a12,12,0,0,1,3.93,7.81Z" transform="translate(-22.26 -17.49)"/><path class="cls-18" d="M269.74,323.24c.52,7.08-.2,9.42-1.26,9.75s-2-1.17-2.88-.72c-1.43.71.35,4.81-1.48,6.34-1.19,1-2.42-.34-4.64.5-2.8,1.06-3,4-4.68,4s-2.05-3.49-4-3.74c-2.15-.26-3.79,3.49-5,3s.22-3.44-1.38-5.05-4.71.19-6-1.43c-.85-1.07.11-2.33-.17-6.58-.07-1-.18-1.8-.26-2.34a8.45,8.45,0,0,1-.11-1.45v-1.23a50.61,50.61,0,0,1,1.08-8.66,50.57,50.57,0,0,0,1.08-8.5,20.26,20.26,0,0,0-.43-4.36,13,13,0,0,0-1.62-4c0-.11.08-.23.11-.34.84.07,2.06.11,3.68.11s2.84,0,3.68.12a19.59,19.59,0,0,1,1,3.87,27.85,27.85,0,0,1,.32,4.22,76.49,76.49,0,0,1-1.06,10.15,78.44,78.44,0,0,0-1.05,9.52A5.92,5.92,0,0,0,246.6,330a13.34,13.34,0,0,0,3.93,2.5,8.8,8.8,0,0,0,3,.52,8.49,8.49,0,0,0,5.7-2.05,10.32,10.32,0,0,0,2.57-3.77,13,13,0,0,0,.74-4.5,47.42,47.42,0,0,0-1-7.64,49.15,49.15,0,0,1-1-7.24,28.64,28.64,0,0,1,.31-4.44,42.12,42.12,0,0,1,1.06-4.68h7.41a16.62,16.62,0,0,0-1.17,3.88,24.08,24.08,0,0,0-.37,4.33,61.11,61.11,0,0,0,1,9.21Q269.62,322.11,269.74,323.24Z" transform="translate(-22.26 -17.49)"/><path class="cls-18" d="M284.9,342.78c-.15.84-.29,1.56-.4,2.17a7.81,7.81,0,0,1-.46,1.6c-1.47,2.45-2.38,2.94-3,2.82-1-.22-1.17-2.29-2.16-2.34-.79,0-1.15,1.28-2,1.26s-1.26-1-1.62-1.8l1.2-4.33a10.71,10.71,0,0,0,.34-1.86,18.26,18.26,0,0,0,.12-2.08,45.83,45.83,0,0,0-.52-5.75,47.67,47.67,0,0,1-.51-5.76c-.15-1.29-.28-2.79-.4-4.5s-.17-3.25-.17-4.62a44.86,44.86,0,0,1,.68-9.23,16.72,16.72,0,0,1,.8-2.91h7.75c.12.15.08.47-.11,1a36.73,36.73,0,0,0-1.11,5.58,47.69,47.69,0,0,0-.37,5.87q0,3.88.94,12.74T284.9,342.78Z" transform="translate(-22.26 -17.49)"/><path class="cls-18" d="M326.85,344.69l-.54,2.65-1.31-.4c-.62-.78-1.34-1.48-1.83-1.31s-.5,1.65-.91,1.71c-.22,0-.56-.31-1.11-1.76h-.57c-.49-1.18-.86-2-1.11-2.57a10.18,10.18,0,0,0-1.23-1.88,6.9,6.9,0,0,0-1.28,1.68c-1.33,2.48-.51,4.77-1.32,5.12s-1.73-2-3.35-2c-2.31,0-3.34,4.73-5.11,4.56-1.54-.15-1.35-3.79-3.58-4.65-2.4-.91-4.7,2.51-6.5,1.59-1.44-.74-.24-3.07-1.66-7.37-1.21-3.71-3.23-4.89-3.59-8-.26-2.32-.42-3.7-.45-4.16s-.06-.91-.06-1.37A24,24,0,0,1,294,315.11a16.66,16.66,0,0,1,7.15-7.38,19.33,19.33,0,0,1,8.81-2.28,16.79,16.79,0,0,1,4.93.71,12.84,12.84,0,0,1,4.19,2.2l1.77,1.76a5.42,5.42,0,0,1,1.42,2.23c.23.07.54.6.94,1.59a11.09,11.09,0,0,1,.6,4.05,10.67,10.67,0,0,1-.54,3.5,8.15,8.15,0,0,1-1.57,2.74,8.48,8.48,0,0,1-2.22,1.85,16.84,16.84,0,0,1-2.57,1.2,15.84,15.84,0,0,1-3.3.4,12.72,12.72,0,0,1-3.79-.54,10.59,10.59,0,0,1-3.57-2.08,7.67,7.67,0,0,1-2.45-4.28l3.94-3.65a6.11,6.11,0,0,0,1.54,3,6,6,0,0,0,2.79,1.89,13.73,13.73,0,0,0,1.48.11,3.65,3.65,0,0,0,3-1.08,5.35,5.35,0,0,0,1.6-3.94,7,7,0,0,0-1.91-3.56,6.08,6.08,0,0,0-3.11-1.79,13.75,13.75,0,0,0-2.67-.35,10.19,10.19,0,0,0-4.25.92,14.45,14.45,0,0,0-4,2.73,11.69,11.69,0,0,0-2.94,4.62,17.92,17.92,0,0,0-1,6,23.08,23.08,0,0,0,1.14,7,20.44,20.44,0,0,0,2.28,4.3,7.56,7.56,0,0,0,3.37,2.6,6,6,0,0,0,2.73.57,6.77,6.77,0,0,0,3.74-.91,12,12,0,0,0,1.88-1.43,1.84,1.84,0,0,0,.48-1.31l-.28-.17a11.65,11.65,0,0,0-2-.17,5.6,5.6,0,0,1-2.36-.46,6.08,6.08,0,0,1-.12-1.42,23.21,23.21,0,0,1,.15-2.34c.09-.95.14-1.5.14-1.65a10.77,10.77,0,0,0,1.54.23c.53,0,1.12.05,1.77.05,1.14,0,2.77-.08,4.9-.25s3.32-.26,3.59-.26c.72,0,1.36,0,1.91.06a9.51,9.51,0,0,1,1.74.28c0,.57,0,1.45-.06,2.62s-.06,2.06-.06,2.62a7.14,7.14,0,0,1-1.08-.11,9.12,9.12,0,0,0-1.2-.11,2.21,2.21,0,0,0-1.19.28,11.64,11.64,0,0,1,2,3c.81,1.72.76,2.83,1.8,4.22A7,7,0,0,0,326.85,344.69Z" transform="translate(-22.26 -17.49)"/><path class="cls-18" d="M367.09,338.63h-1.37a2.35,2.35,0,0,1-2.78,1.38,2.19,2.19,0,0,1-1.2-1.43h-.57c-.5-1.18-.87-2-1.12-2.57a9.57,9.57,0,0,0-1.22-1.88c-.63,2-1.39,3.72-2.15,3.67s-.8-1.24-1.39-1.26c-1.16,0-1.9,4.4-2.7,4.32s-.64-3.4-1.58-3.55-1.27,2.24-2.56,2.38c-1.53.17-2-3-4.14-3.55-2.82-.76-5.4,3.8-7.11,3-1.11-.54-.15-2.48-1.17-6.09-1.09-3.85-3.21-4.66-3.59-8-.27-2.32-.42-3.7-.46-4.16s-.06-.91-.06-1.37a24.14,24.14,0,0,1,2.68-11.37,16.62,16.62,0,0,1,7.16-7.38,19.26,19.26,0,0,1,8.8-2.28,16.79,16.79,0,0,1,4.93.71,12.84,12.84,0,0,1,4.19,2.2l1.77,1.76a5.32,5.32,0,0,1,1.42,2.23c.23.07.55.6.95,1.59a11.33,11.33,0,0,1,.59,4.05,10.67,10.67,0,0,1-.54,3.5,8,8,0,0,1-1.57,2.74,8.48,8.48,0,0,1-2.22,1.85,17.18,17.18,0,0,1-2.56,1.2,16,16,0,0,1-3.31.4,12.72,12.72,0,0,1-3.79-.54,10.46,10.46,0,0,1-3.56-2.08,7.56,7.56,0,0,1-2.45-4.28l3.93-3.65a6.78,6.78,0,0,0,4.33,4.91,13.73,13.73,0,0,0,1.48.11,3.69,3.69,0,0,0,3-1.08,5.38,5.38,0,0,0,1.59-3.94,7,7,0,0,0-1.91-3.56,6.06,6.06,0,0,0-3.1-1.79,13.84,13.84,0,0,0-2.68-.35,10.22,10.22,0,0,0-4.25.92,14.45,14.45,0,0,0-4,2.73,11.56,11.56,0,0,0-2.93,4.62,17.68,17.68,0,0,0-1,6,23.08,23.08,0,0,0,1.14,7,19.55,19.55,0,0,0,2.28,4.3,7.48,7.48,0,0,0,3.36,2.6,6.06,6.06,0,0,0,2.74.57,6.73,6.73,0,0,0,3.73-.91,11.57,11.57,0,0,0,1.88-1.43,1.85,1.85,0,0,0,.49-1.31l-.29-.17a11.61,11.61,0,0,0-2-.17,5.69,5.69,0,0,1-2.37-.46,6.84,6.84,0,0,1-.11-1.42c0-.61.05-1.39.14-2.34s.14-1.5.14-1.65a11,11,0,0,0,1.54.23c.53,0,1.12.05,1.77.05,1.14,0,2.77-.08,4.9-.25s3.32-.26,3.59-.26c.72,0,1.36,0,1.91.06a9.51,9.51,0,0,1,1.74.28c0,.57,0,1.45-.06,2.62s-.05,2.06-.05,2.62a7.36,7.36,0,0,1-1.09-.11,9,9,0,0,0-1.19-.11,2.22,2.22,0,0,0-1.2.28,11.39,11.39,0,0,1,2,3c.76,1.83,1.36,3.23,1.8,4.22a8.72,8.72,0,0,0,1,1.91A1.84,1.84,0,0,1,367.09,338.63Z" transform="translate(-22.26 -17.49)"/><path class="cls-18" d="M403.23,322c-.15.72-.29,1.51-.43,2.36a15.13,15.13,0,0,0-.2,2.2,8.22,8.22,0,0,0,.4,2.56c0,.08,0,.21-.06.36-.48,3-.59,3.21-.72,3.24-.38.09-.64-1.15-2-2.52-.72-.74-1.4-1.44-2.25-1.44-1.28,0-1.48,1.63-2.79,2.07-2.33.79-4.55-3.45-6.57-2.88-2.35.65-2,7.11-3.42,7.2s-2-5.64-5.24-6.37a3.27,3.27,0,0,0-1.42,0,5.39,5.39,0,0,1,0,.7c-.13,1.58-1.14,3.16-1.71,3.06-.73-.14-.34-2.94-1.34-3.22-.79-.22-1.69,1.36-2.53,1.06a1.24,1.24,0,0,1-.63-.86A16.14,16.14,0,0,0,374,325a25.83,25.83,0,0,0,.49-5.08,76.61,76.61,0,0,0-.72-8.72A77.92,77.92,0,0,1,373,303v-3.42c0-2.09.07-3.91.2-5.47a20.85,20.85,0,0,1,.88-4.5c1.26,0,2.52,0,3.79-.06l3.85-.11a7.34,7.34,0,0,0-.06.8,17,17,0,0,0-.74,3.36,31.1,31.1,0,0,0-.22,3.7c0,1.64.21,4.38.65,8.24s.66,6.45.66,7.78c0,.31.05.61.05.91v.86c0,.65,0,1.72-.11,3.22s-.11,2.33-.11,2.48l.57.34a57.44,57.44,0,0,1,7.95.86,59.28,59.28,0,0,0,7.38.85A16.87,16.87,0,0,0,403.23,322Z" transform="translate(-22.26 -17.49)"/><path class="cls-18" d="M439.65,293c0,.8,0,2,0,3.67s-.06,2.81-.06,3.45a10.4,10.4,0,0,0-3.42-.57,22.26,22.26,0,0,0-3.56.37l-4.71.83-2.42,0-2.42,0h-.8a36.34,36.34,0,0,1-5.47-.4,3.54,3.54,0,0,0-.29,1c0,.3-.05.66-.05,1.08a18.43,18.43,0,0,0,.2,2.39c.13,1,.2,1.7.2,2a3.2,3.2,0,0,0,.68.11l.57.06c.23,0,.56,0,1-.06s.75-.05.94-.05a12.44,12.44,0,0,1,2,.37c1.07.24,2.11.47,3.14.68a15,15,0,0,0,3,.31,8.21,8.21,0,0,0,3.82-.85.78.78,0,0,1,.23.4,6.77,6.77,0,0,0-.12,1.28v2.45c0,.48,0,.94.06,1.4a7.22,7.22,0,0,1-.06.88,6.2,6.2,0,0,0-.05.77,9.3,9.3,0,0,1-3.71.69,31.91,31.91,0,0,1-4.73-.57,32.58,32.58,0,0,0-4.5-.57,9.91,9.91,0,0,0-1.26.05l-.11.23a23,23,0,0,1,.57,5.42q0,1.42-.06,2.22c0,.53-.11,1.35-.23,2.45a3.37,3.37,0,0,0,1,.11,15.26,15.26,0,0,0,1.54-.11,9.66,9.66,0,0,1,1.71-.06l11.51,2a12.05,12.05,0,0,0,2.88-.31,9.16,9.16,0,0,0,2.59-1.11,7.33,7.33,0,0,1,.29,1.57c0,.51.06,1.15.06,1.91,0,.6,0,1.21,0,1.82s0,1.2,0,1.77c-3-1.94-4.34-2-4.92-1.53s-.3,1.34-1,2.16-2.25,1.07-3.51,1c-2-3.19-3.28-3.77-4.07-3.6-2,.45-2.26,6.07-3.4,6-.85,0-1.13-3.2-2.16-3.24s-1.24,2.34-2.34,2.43c-1.34.1-2-3.34-3.26-3.36-1.84,0-3.19,6.92-3.94,6.78s-.41-5.68-1.25-5.78c-.2,0-.43.26-1,.26a3.14,3.14,0,0,1-.63-.12,8.53,8.53,0,0,1,1-2,9.62,9.62,0,0,0,1.17-2.48A25,25,0,0,0,411,325a36.4,36.4,0,0,0,.32-4.7,93.89,93.89,0,0,0-.91-10.6,92.57,92.57,0,0,1-.92-10.83,26.15,26.15,0,0,1,.8-6.33q2.85.46,6.19,1a37.63,37.63,0,0,0,5.5.51,22.29,22.29,0,0,0,2.9-.17,16.83,16.83,0,0,0,2.85-.62c1.37-.27,2.68-.47,3.94-.6a26.2,26.2,0,0,1,3.76-.2A21.29,21.29,0,0,1,439.65,293Z" transform="translate(-22.26 -17.49)"/><path class="cls-18" d="M474.54,329.69a8.78,8.78,0,0,1,.45,2.85,9.72,9.72,0,0,1-1,4.14c-2.4,5.36-2.68,10.52-3.67,10.44-1.14-.1-1.52-7-2.25-6.93-.29,0-.33,1.09-.81,1.17-.63.09-1-1.7-1.71-1.8-1.59-.23-3.31,7.6-4.95,7.47-1.43-.11-1.64-6.16-3.33-6.3-1.19-.1-1.84,2.85-3.24,2.79-1.66-.07-2.25-4.28-3.6-4.23s-1.61,3.84-3,4c-.94.08-1.9-1.62-2.71-3.58a.8.8,0,0,0,0-.36,2.18,2.18,0,0,0-.16-.5,2.39,2.39,0,0,1-.26-.85c0-.3,0-.78-.05-1.43s-.06-1.12-.06-1.42a5.81,5.81,0,0,1,.28-1.94,4.06,4.06,0,0,1,1.37-.23,6.93,6.93,0,0,1,1.91.29c.67.19,1.35.4,2.05.63s2.35.88,4.93,2a17.82,17.82,0,0,0,6.62,1.63,8.37,8.37,0,0,0,3.07-.55,7.34,7.34,0,0,0,2.54-1.62,3.13,3.13,0,0,0,1.11-2.22,5,5,0,0,0-.2-1.14,4.82,4.82,0,0,0-1.39-2,4.23,4.23,0,0,0-2.63-1.28,83.86,83.86,0,0,1-12.85-4.16q-3.9-1.83-5.33-7.24a9.75,9.75,0,0,1-.51-3.08,10.52,10.52,0,0,1,.65-3.68,13.84,13.84,0,0,1,2.34-3.76,11,11,0,0,1,4.67-3.16,18.38,18.38,0,0,1,6.59-1.14,22.3,22.3,0,0,1,6.55,1,26.77,26.77,0,0,1,3.77,1.88,6.86,6.86,0,0,1,1.71,1.82,6.11,6.11,0,0,1,1.33,2.23,8.42,8.42,0,0,1,.43,2.79,8.73,8.73,0,0,1-.4,2.79,6.57,6.57,0,0,1-2.25,3.39,7.9,7.9,0,0,1-3.85,1.8,16.55,16.55,0,0,1-1.79.34,14.88,14.88,0,0,1-2,.11,4.39,4.39,0,0,1-.71-.05,4,4,0,0,0-.6-.06,43.76,43.76,0,0,1-.23-4.73v-.68a2.59,2.59,0,0,1,.57-.09,7.14,7.14,0,0,0,.74-.09c.35,0,.72,0,1.12,0a2.79,2.79,0,0,0,1.14-.32,3,3,0,0,0,.94-.77,5.54,5.54,0,0,0,.74-1.28,2.24,2.24,0,0,0-.43-1.8,11.21,11.21,0,0,0-1.8-1.73,6.65,6.65,0,0,0-1.93-.74,9.85,9.85,0,0,0-2.23-.23,11.39,11.39,0,0,0-3.7.6,11,11,0,0,0-3.31,1.79,5,5,0,0,0-2,3.88,7.65,7.65,0,0,0,5.47,5.78q4.44,1.46,7.41,2.31a19.47,19.47,0,0,1,6.67,2.37A7.88,7.88,0,0,1,474.54,329.69Z" transform="translate(-22.26 -17.49)"/><path class="cls-18" d="M211.6,327.18" transform="translate(-22.26 -17.49)"/></g></svg>